{"title":"The.Amazing.Race.Asia.S04E10-LCP.avi","uid":5984931,"size":369381252,"categoryP":"video","categoryS":"tv_shows","magnet":"?xt=urn:btih:0c10faefc80f6d2b2fe5816d099ed48242910e4e&amp;dn=The.Amazing.Race.Asia.S04E10-LCP.avi&amp;tr=udp%3A%2F%2Ftracker.openbittorrent.com%3A80&amp;tr=udp%3A%2F%2Fopen.demonii.com%3A1337&amp;tr=udp%3A%2F%2Ftracker.coppersurfer.tk%3A6969&amp;tr=udp%3A%2F%2Fexodus.desync.com%3A6969","seeders":1,"leechers":0,"uploader":"LCP-1","files":1,"time":1290705650,"description":"The Amazing Race Asia S04E10\n\nEnjoy!\n\nVideo\nFormat                           : MPEG-4 Visual\nCodec ID                         : XVID\nDuration                         : 47mn 49s\nBit rate                         : 921 Kbps\nWidth                            : 624 pixels\nHeight                           : 352 pixels\nDisplay aspect ratio             : 16:9\nFrame rate                       : 25.000 fps\nBits/(Pixel*Frame)               : 0.168\nStream size                      : 315 MiB (89%)\n\nAudio\nFormat                           : MPEG Audio\nFormat profile                   : Layer 3\nMode                             : Joint stereo\nCodec ID/Hint                    : MP3\nDuration                         : 47mn 49s\nBit rate mode                    : Constant\nBit rate                         : 96.0 Kbps\nChannel(s)                       : 2 channels\nSampling rate                    : 48.0 KHz\nBit depth                        : 16 bits\nStream size                      : 32.8 MiB (9%)\n","torrent":{"xt":"urn:btih:0c10faefc80f6d2b2fe5816d099ed48242910e4e","amp;dn":"The.Amazing.Race.Asia.S04E10-LCP.avi","amp;tr":["udp%3A%2F%2Ftracker.openbittorrent.com%3A80","udp%3A%2F%2Fopen.demonii.com%3A1337","udp%3A%2F%2Ftracker.coppersurfer.tk%3A6969","udp%3A%2F%2Fexodus.desync.com%3A6969"],"infoHash":"0c10faefc80f6d2b2fe5816d099ed48242910e4e","infoHashBuffer":{"type":"Buffer","data":[12,16,250,239,200,15,109,43,47,229,129,109,9,158,212,130,66,145,14,78]},"announce":[],"urlList":[]}}